<svg xmlns="http://www.w3.org/2000/svg" viewBox="0 0 73.38 73.48"><defs><style>.cls-1{fill:#e76424;}.cls-2{fill:#fdb913;}</style></defs><g id="Layer_2" data-name="Layer 2"><g id="text"><circle class="cls-1" cx="36.51" cy="36.66" r="17.91"/><polygon class="cls-2" points="36.55 0 39.98 16.57 33.12 16.57 36.55 0"/><polygon class="cls-2" points="56.12 5.46 50.24 21.32 44.43 17.68 56.12 5.46"/><polygon class="cls-2" points="16.06 5.89 27.93 17.95 22.16 21.67 16.06 5.89"/><polygon class="cls-2" points="3.74 19.6 20 24.25 16.82 30.32 3.74 19.6"/><polygon class="cls-2" points="0 36.66 16.57 33.23 16.57 40.09 0 36.66"/><polygon class="cls-2" points="4.12 53.96 17.07 43.08 20.33 49.12 4.12 53.96"/><polygon class="cls-2" points="16.7 67.54 22.59 51.68 28.4 55.32 16.7 67.54"/><polygon class="cls-2" points="36.51 73.48 33.08 56.91 39.94 56.91 36.51 73.48"/><polygon class="cls-2" points="56.81 66.89 44.71 55.07 50.4 51.24 56.81 66.89"/><polygon class="cls-2" points="68.94 53.4 52.68 48.75 55.86 42.68 68.94 53.4"/><polygon class="cls-2" points="73.38 36.53 56.81 39.96 56.81 33.1 73.38 36.53"/><polygon class="cls-2" points="68.57 19.04 55.61 29.92 52.36 23.89 68.57 19.04"/></g></g></svg>