<svg id="Layer_1" data-name="Layer 1" xmlns="http://www.w3.org/2000/svg" viewBox="0 0 39.09 39.4"><defs><style>.cls-1{fill:#e76424;}.cls-2{fill:#fdb913;}.cls-3{fill:#3f53a4;}</style></defs><g id="Layer_2" data-name="Layer 2"><g id="text"><circle class="cls-1" cx="22.25" cy="17.45" r="5.27"/><polygon class="cls-2" points="22.27 6.67 23.27 11.54 21.26 11.54 22.27 6.67"/><polygon class="cls-2" points="28.02 8.27 26.29 12.94 24.58 11.87 28.02 8.27"/><polygon class="cls-2" points="16.24 8.4 19.73 11.95 18.03 13.04 16.24 8.4"/><polygon class="cls-2" points="12.62 12.43 17.4 13.8 16.46 15.59 12.62 12.43"/><polygon class="cls-2" points="11.52 17.45 16.39 16.44 16.39 18.46 11.52 17.45"/><polygon class="cls-2" points="12.73 22.54 16.54 19.34 17.5 21.11 12.73 22.54"/><polygon class="cls-2" points="16.43 26.53 18.16 21.87 19.87 22.94 16.43 26.53"/><polygon class="cls-2" points="22.25 28.28 21.25 23.41 23.26 23.41 22.25 28.28"/><polygon class="cls-2" points="28.23 26.34 24.67 22.86 26.34 21.74 28.23 26.34"/><polygon class="cls-2" points="31.79 22.37 27.01 21.01 27.95 19.22 31.79 22.37"/><polygon class="cls-2" points="33.1 17.41 28.23 18.42 28.23 16.4 33.1 17.41"/><polygon class="cls-2" points="31.68 12.27 27.87 15.47 26.92 13.7 31.68 12.27"/></g></g><g id="Layer_2-2" data-name="Layer 2"><g id="text-2" data-name="text"><path class="cls-3" d="M32.32,35.81A15.24,15.24,0,1,1,12.73,15.55a14.57,14.57,0,0,0,12.79,22,15,15,0,0,0,6.8-1.72Z" transform="translate(-3.11 -5.56)"/><path class="cls-2" d="M42.2,29.92v0a2.28,2.28,0,0,0-.52,0,3.92,3.92,0,0,0-3.91,3.92h0a3.93,3.93,0,0,0-3.92-3.92H34A3.93,3.93,0,0,0,37.93,26a3.92,3.92,0,0,0,3.91,3.92h.36Z" transform="translate(-3.11 -5.56)"/><path class="cls-2" d="M17.71,12.22h-.32A2.33,2.33,0,0,0,15,14.58h0a2.34,2.34,0,0,0-2.36-2.36h.12a2.36,2.36,0,0,0,2.36-2.35,2.33,2.33,0,0,0,2.35,2.35h.2Z" transform="translate(-3.11 -5.56)"/><path class="cls-2" d="M30.83,8.39v0c-.12,0-.24,0-.36,0a2.91,2.91,0,0,0-2.87,2.84h0a2.85,2.85,0,0,0-2.84-2.84h.12a2.85,2.85,0,0,0,2.84-2.83,2.85,2.85,0,0,0,2.83,2.83A.34.34,0,0,0,30.83,8.39Z" transform="translate(-3.11 -5.56)"/></g></g></svg>