<svg xmlns="http://www.w3.org/2000/svg" viewBox="0 0 204.22 91.09"><defs><style>.cls-1{fill:#fdb913;}.cls-2{fill:#e76424;}.cls-3{font-size:49.93px;letter-spacing:0.02em;}.cls-10,.cls-3,.cls-4,.cls-6,.cls-7,.cls-8{fill:#231f20;}.cls-3,.cls-4,.cls-6,.cls-7{font-family:NiagaraEngraved-Reg, Niagara Engraved;}.cls-4{font-size:38.44px;letter-spacing:0.02em;}.cls-5{fill:#3f53a4;}.cls-6{font-size:41.01px;letter-spacing:0.02em;}.cls-7{font-size:30.76px;letter-spacing:0.02em;}.cls-8{font-size:24px;font-family:Gabriola;letter-spacing:0.17em;}.cls-9{letter-spacing:0.15em;}.cls-10{stroke:#231f20;stroke-miterlimit:10;stroke-width:0.5px;}</style></defs><g id="moon"><path class="cls-1" d="M202.25,4.52a2,2,0,0,0,0,.25,2,2,0,0,0,0-.25Z" transform="translate(-24.67 -4.52)"/></g><g id="text"><circle class="cls-2" cx="39.82" cy="39.94" r="17.91"/><polygon class="cls-1" points="39.86 3.28 43.29 19.84 36.43 19.84 39.86 3.28"/><polygon class="cls-1" points="59.44 8.74 53.55 24.6 47.74 20.96 59.44 8.74"/><polygon class="cls-1" points="19.37 9.17 31.24 21.23 25.48 24.95 19.37 9.17"/><polygon class="cls-1" points="7.05 22.87 23.32 27.53 20.14 33.6 7.05 22.87"/><polygon class="cls-1" points="3.31 39.94 19.88 36.51 19.88 43.37 3.31 39.94"/><polygon class="cls-1" points="7.43 57.24 20.39 46.36 23.64 52.39 7.43 57.24"/><polygon class="cls-1" points="20.01 70.81 25.9 54.95 31.71 58.59 20.01 70.81"/><polygon class="cls-1" points="39.82 76.75 36.4 60.18 43.25 60.18 39.82 76.75"/><polygon class="cls-1" points="60.13 70.17 48.03 58.34 53.71 54.51 60.13 70.17"/><polygon class="cls-1" points="72.26 56.68 55.99 52.02 59.17 45.95 72.26 56.68"/><polygon class="cls-1" points="76.69 39.81 60.13 43.24 60.13 36.38 76.69 39.81"/><polygon class="cls-1" points="71.88 22.31 58.92 33.2 55.67 27.16 71.88 22.31"/><text class="cls-3" transform="translate(33.37 54.46)">s</text><text class="cls-4" transform="translate(47.12 54.21)">un</text><path class="cls-5" d="M211.13,61.74A38.13,38.13,0,1,1,162.18,11a36,36,0,0,0-5.08,18.51,36.81,36.81,0,0,0,54,32.21Z" transform="translate(-24.67 -4.52)"/><path class="cls-1" d="M186.12,22.87V23a8,8,0,0,0-1.3-.1A9.83,9.83,0,0,0,175,32.75a9.82,9.82,0,0,0-9.81-9.83.75.75,0,0,0-.21,0v-.05a4.09,4.09,0,0,0,.62,0,9.82,9.82,0,0,0,9.81-9.81,9.82,9.82,0,0,0,9.83,9.81A8.53,8.53,0,0,0,186.12,22.87Z" transform="translate(-24.67 -4.52)"/><path class="cls-1" d="M195.55,19.52v.09a5,5,0,0,0-.78-.06,5.92,5.92,0,0,0-5.93,5.93,5.92,5.92,0,0,0-5.92-5.93h-.13v0a2.3,2.3,0,0,0,.37,0,5.92,5.92,0,0,0,5.92-5.92A5.92,5.92,0,0,0,195,19.55,4.75,4.75,0,0,0,195.55,19.52Z" transform="translate(-24.67 -4.52)"/><path class="cls-1" d="M176.94,38.26v.1a7.45,7.45,0,0,0-.95-.07,7.15,7.15,0,0,0-7.15,7.16,7.15,7.15,0,0,0-7.14-7.16h-.15v0a3.17,3.17,0,0,0,.44,0,7.14,7.14,0,0,0,7.14-7.14,7.15,7.15,0,0,0,7.16,7.14C176.51,38.29,176.72,38.28,176.94,38.26Z" transform="translate(-24.67 -4.52)"/><text class="cls-6" transform="translate(155.15 56.56)">M</text><text class="cls-7" transform="translate(172.42 56.56)">oon</text><text class="cls-7" transform="translate(83.05 54.21)">and</text><text class="cls-8" transform="translate(63.6 74.9)">Ca<tspan class="cls-9" x="28.22" y="0">f</tspan><tspan x="37.43" y="0">e</tspan></text><line class="cls-10" y1="76.04" x2="204.22" y2="76.04"/></g></svg>